#!OML:ASF E:\Mandelcareful walks\Project 1\Capture day 1\Session 1\Subject1.ASF
:FULLY-SPECIFIED
:DEGREES
470
root -10.5937 14.887 0.592693 -306.183 76.7889 -323.772
lowerback 28.1133 0.71028 -4.61711
upperback 6.48633 -0.155712 -3.13927
thorax -8.23933 0.222176 -0.824494
lowerneck -28.0832 5.33717 0.754184
upperneck 12.3943 9.38086 -11.3431
head 9.08536 3.22026 -2.57198
rclavicle -8.24956e-015 3.17062e-014
rhumerus -7.80132 17.1652 -85.6497
rradius 78.3281
rwrist -10.8569
rhand -25.3371 -30.9604
rfingers 7.12502
rthumb 1.18603 -60.9368
lclavicle -8.24956e-015 3.17062e-014
lhumerus 12.4413 -8.98583 73.1907
lradius 72.1294
lwrist 19.1685
lhand -42.0612 -28.7553
lfingers 7.12502
lthumb -14.9542 0.684825
rfemur -48.9773 -19.5096 7.35238
rtibia 66.5207
rfoot -29.0578 -11.5936
rtoes -5.48308
lfemur -59.0203 14.2058 -22.2079
ltibia 55.5601
lfoot -10.2315 3.00602
ltoes -15.7492
471
root -10.5755 14.8893 0.565406 -306.786 76.7902 -324.46
lowerback 28.4125 0.746449 -4.62363
upperback 6.21573 -0.160681 -3.08208
thorax -8.6939 0.220418 -0.76472
lowerneck -28.1273 4.45958 -0.0905093
upperneck 12.498 8.25009 -10.1306
head 8.94502 2.77339 -2.20836
rclavicle 2.78299e-015 1.56046e-014
rhumerus -7.68949 16.9758 -85.7091
rradius 78.321
rwrist -10.7719
rhand -25.8054 -31.5524
rfingers 7.12502
rthumb 0.733742 -61.5309
lclavicle 2.78299e-015 1.56046e-014
lhumerus 11.8268 -9.12062 73.3343
lradius 72.0679
lwrist 18.8181
lhand -41.6097 -28.3748
lfingers 7.12502
lthumb -14.5192 1.0971
rfemur -48.9833 -19.4227 7.35016
rtibia 66.4778
rfoot -29.0713 -11.5392
rtoes -5.63774
lfemur -59.1607 14.3357 -22.256
ltibia 55.769
lfoot -10.2105 2.96141
ltoes -16.3937
472
root -10.552 14.891 0.537963 -307.4 76.7832 -325.113
lowerback 27.9752 0.724083 -4.66031
upperback 6.44034 -0.144121 -3.04715
thorax -8.22278 0.224514 -0.69864
lowerneck -28.4292 3.76841 -0.647274
upperneck 12.4362 7.33696 -9.24908
head 8.85232 2.40876 -1.96298
rclavicle 1.96797e-014 6.03311e-014
rhumerus -6.87029 16.6068 -85.7192
rradius 78.2434
rwrist -10.6879
rhand -25.859 -32.9623
rfingers 7.12502
rthumb 0.681906 -62.9409
lclavicle 1.96797e-014 6.03311e-014
lhumerus 11.9477 -9.01135 73.2614
lradius 71.9508
lwrist 18.7127
lhand -41.4155 -28.703
lfingers 7.12502
lthumb -14.332 0.782338
rfemur -48.9034 -19.3941 7.31951
rtibia 66.4145
rfoot -29.1383 -11.3543
rtoes -5.59089
lfemur -59.2209 14.4177 -22.2642
ltibia 55.9919
lfoot -10.4109 2.93903
ltoes -16.1851
473
root -10.53 14.8886 0.509497 -307.82 76.7239 -325.473
lowerback 27.9936 0.714292 -4.77015
upperback 6.47725 -0.18031 -3.00925
thorax -8.1878 0.209724 -0.580642
lowerneck -28.7217 3.28881 -0.89573
upperneck 12.5075 6.70016 -8.78181
head 8.86118 2.13783 -1.86373
rclavicle 4.87022e-015 3.23025e-014
rhumerus -6.56219 16.3182 -85.883
rradius 78.3936
rwrist -10.7212
rhand -24.7262 -33.3549
rfingers 7.12502
rthumb 1.77604 -63.3273
lclavicle 4.87022e-015 3.23025e-014
lhumerus 11.8384 -8.91295 73.308
lradius 71.8131
lwrist 18.5689
lhand -41.5127 -29.1854
lfingers 7.12502
lthumb -14.4256 0.293302
rfemur -48.7261 -19.3519 7.14622
rtibia 66.3265
rfoot -29.0604 -11.2974
rtoes -5.53978
lfemur -59.1894 14.4294 -22.3059
ltibia 56.213
lfoot -11.089 3.02818
ltoes -14.152
474
root -10.5097 14.8833 0.480049 -308.422 76.6095 -326.007
lowerback 28.1021 0.73407 -4.92874
upperback 6.46711 -0.200414 -2.92391
thorax -8.2498 0.203894 -0.389225
lowerneck -28.8942 2.88262 -1.18691
upperneck 12.5083 6.19372 -8.41829
head 8.84066 1.92202 -1.77253
rclavicle 1.49089e-014 -3.97569e-016
rhumerus -6.39198 16.2816 -85.8682
rradius 78.5285
rwrist -10.9742
rhand -23.9801 -33.2587
rfingers 7.12502
rthumb 2.49658 -63.2238
lclavicle 1.49089e-014 -3.97569e-016
lhumerus 11.5784 -8.67539 73.5081
lradius 71.712
lwrist 18.2652
lhand -41.5953 -28.9285
lfingers 7.12502
lthumb -14.5052 0.544493
rfemur -48.5685 -19.1943 6.93694
rtibia 66.2157
rfoot -28.9514 -11.3042
rtoes -5.73398
lfemur -59.1629 14.5363 -22.3892
ltibia 56.4202
lfoot -11.502 3.07293
ltoes -13.2106
475
root -10.4911 14.8783 0.452678 -308.788 76.5142 -326.39
lowerback 28.1109 0.753852 -5.0818
upperback 6.38295 -0.223298 -2.83536
thorax -8.34639 0.195049 -0.1958
lowerneck -28.7636 2.53993 -1.5362
upperneck 12.4246 5.74681 -7.92843
head 8.74114 1.75604 -1.61899
rclavicle 5.26779e-015 1.88845e-014
rhumerus -6.59523 16.1074 -85.8858
rradius 78.9787
rwrist -11.0816
rhand -24.1756 -33.4185
rfingers 7.12502
rthumb 2.30778 -63.3857
lclavicle 5.26779e-015 1.88845e-014
lhumerus 11.1916 -8.53896 73.6545
lradius 71.638
lwrist 18.2137
lhand -41.5333 -28.6013
lfingers 7.12502
lthumb -14.4455 0.875966
rfemur -48.5181 -19.0941 6.77659
rtibia 66.1046
rfoot -28.8492 -11.2201
rtoes -6.1164
lfemur -59.2206 14.6174 -22.5069
ltibia 56.5939
lfoot -11.3497 3.05141
ltoes -14.396
476
root -10.4739 14.8755 0.428362 -308.859 76.444 -326.534
lowerback 27.9095 0.750358 -5.15043
upperback 6.37857 -0.233746 -2.80209
thorax -8.25041 0.18793 -0.112825
lowerneck -28.588 2.2278 -1.75016
upperneck 12.2118 5.29709 -7.52757
head 8.60068 1.59192 -1.51703
rclavicle -4.57205e-015 7.85199e-015
rhumerus -6.58695 15.7133 -85.9591
rradius 79.2176
rwrist -11.0556
rhand -24.6819 -32.9619
rfingers 7.12502
rthumb 1.81883 -62.9339
lclavicle -4.57205e-015 7.85199e-015
lhumerus 11.0156 -8.50922 73.7284
lradius 71.5399
lwrist 18.358
lhand -41.3362 -28.9138
lfingers 7.12502
lthumb -14.2556 0.576934
rfemur -48.5192 -19.0171 6.60116
rtibia 65.9949
rfoot -28.8051 -11.0206
rtoes -5.53785
lfemur -59.3383 14.596 -22.6129
ltibia 56.7575
lfoot -10.9214 3.03969
ltoes -16.557
477
root -10.4565 14.876 0.406302 -309.049 76.3734 -326.748
lowerback 27.8119 0.770034 -5.18931
upperback 6.42005 -0.206594 -2.77415
thorax -8.15541 0.199573 -0.0665951
lowerneck -28.8416 1.90364 -1.95626
upperneck 12.195 4.88083 -7.18849
head 8.60268 1.41929 -1.43189
rclavicle -1.85864e-014 1.00386e-014
rhumerus -5.89561 15.3825 -85.9477
rradius 78.3743
rwrist -11.0039
rhand -25.24 -32.097
rfingers 7.12502
rthumb 1.27977 -62.0729
lclavicle -1.85864e-014 1.00386e-014
lhumerus 10.9829 -8.41884 73.8756
lradius 71.4764
lwrist 18.49
lhand -41.2252 -29.2011
lfingers 7.12502
lthumb -14.1486 0.297105
rfemur -48.4584 -18.9201 6.43738
rtibia 65.8656
rfoot -28.7056 -11.0979
rtoes -5.04857
lfemur -59.384 14.6143 -22.6944
ltibia 56.9212
lfoot -10.8045 3.03216
ltoes -17.3132
478
root -10.4414 14.8783 0.38675 -309.404 76.3156 -327.098
lowerback 27.7978 0.796619 -5.09914
upperback 6.50188 -0.140561 -2.81732
thorax -8.05948 0.228857 -0.187405
lowerneck -29.3584 1.54474 -2.23542
upperneck 12.3035 4.42881 -6.65462
head 8.6819 1.23828 -1.27399
rclavicle 5.66536e-015 -7.31528e-014
rhumerus -6.25777 14.6166 -86.1936
rradius 79.3684
rwrist -10.653
rhand -24.826 -31.7853
rfingers 7.12502
rthumb 1.67958 -61.7584
lclavicle 5.66536e-015 -7.31528e-014
lhumerus 11.1201 -8.44129 73.9548
lradius 71.4056
lwrist 18.6517
lhand -41.3467 -28.8185
lfingers 7.12502
lthumb -14.2657 0.671482
rfemur -48.3671 -18.7859 6.33924
rtibia 65.7177
rfoot -28.4901 -11.5012
rtoes -5.23768
lfemur -59.3813 14.7082 -22.7525
ltibia 57.0818
lfoot -10.9754 2.98803
ltoes -16.7147
